<svg width="468" height="36" viewBox="0 0 468 36" fill="none" xmlns="http://www.w3.org/2000/svg">
<g clip-path="url(#clip0_56101_37)">
<path d="M12 6H9V9H12V6Z" fill="#00CC14"/>
<path d="M15 6H12V9H15V6Z" fill="#00CC14"/>
<path d="M9 9H6V12H9V9Z" fill="#00CC14"/>
<path d="M9 12H6V15H9V12Z" fill="#00CC14"/>
<path d="M9 15H6V18H9V15Z" fill="#00CC14"/>
<path d="M18 6H15V9H18V6Z" fill="#00CC14"/>
<path d="M12 18H9V21H12V18Z" fill="#00CC14"/>
<path d="M15 21H12V24H15V21Z" fill="#00CC14"/>
<path d="M18 24H15V27H18V24Z" fill="#00CC14"/>
<path d="M27 6H30V9H27V6Z" fill="#00CC14"/>
<path d="M24 6H27V9H24V6Z" fill="#00CC14"/>
<path d="M30 9H33V12H30V9Z" fill="#00CC14"/>
<path d="M30 12H33V15H30V12Z" fill="#00CC14"/>
<path d="M30 15H33V18H30V15Z" fill="#00CC14"/>
<path d="M21 6H24V9H21V6Z" fill="#00CC14"/>
<path d="M27 18H30V21H27V18Z" fill="#00CC14"/>
<path d="M24 21H27V24H24V21Z" fill="#00CC14"/>
<path d="M21 24H24V27H21V24Z" fill="#00CC14"/>
<path d="M21 9H18V12H21V9Z" fill="#00CC14"/>
<path d="M21 27H18V30H21V27Z" fill="#00CC14"/>
<path d="M51 6H48V9H51V6Z" fill="#00CC14"/>
<path d="M54 6H51V9H54V6Z" fill="#00CC14"/>
<path d="M48 9H45V12H48V9Z" fill="#00CC14"/>
<path d="M48 12H45V15H48V12Z" fill="#00CC14"/>
<path d="M48 15H45V18H48V15Z" fill="#00CC14"/>
<path d="M57 6H54V9H57V6Z" fill="#00CC14"/>
<path d="M51 18H48V21H51V18Z" fill="#00CC14"/>
<path d="M54 21H51V24H54V21Z" fill="#00CC14"/>
<path d="M57 15H54V18H57V15Z" fill="#00CC14"/>
<path d="M57 24H54V27H57V24Z" fill="#00CC14"/>
<path d="M66 6H69V9H66V6Z" fill="#00CC14"/>
<path d="M63 6H66V9H63V6Z" fill="#00CC14"/>
<path d="M69 9H72V12H69V9Z" fill="#00CC14"/>
<path d="M69 12H72V15H69V12Z" fill="#00CC14"/>
<path d="M69 15H72V18H69V15Z" fill="#00CC14"/>
<path d="M60 6H63V9H60V6Z" fill="#00CC14"/>
<path d="M66 18H69V21H66V18Z" fill="#00CC14"/>
<path d="M63 21H66V24H63V21Z" fill="#00CC14"/>
<path d="M60 15H63V18H60V15Z" fill="#00CC14"/>
<path d="M60 24H63V27H60V24Z" fill="#00CC14"/>
<path d="M60 9H57V12H60V9Z" fill="#00CC14"/>
<path d="M60 15H57V18H60V15Z" fill="#00CC14"/>
<path d="M60 12H57V15H60V12Z" fill="#00CC14"/>
<path d="M60 18H57V21H60V18Z" fill="#00CC14"/>
<path d="M60 27H57V30H60V27Z" fill="#00CC14"/>
<path d="M90 6H87V9H90V6Z" fill="#00CC14"/>
<path d="M90 9H87V12H90V9Z" fill="#00CC14"/>
<path d="M93 12H90V15H93V12Z" fill="#00CC14"/>
<path d="M96 9H93V12H96V9Z" fill="#00CC14"/>
<path d="M93 6H90V9H93V6Z" fill="#00CC14"/>
<path d="M87 9H84V12H87V9Z" fill="#00CC14"/>
<path d="M87 12H84V15H87V12Z" fill="#00CC14"/>
<path d="M87 15H84V18H87V15Z" fill="#00CC14"/>
<path d="M96 6H93V9H96V6Z" fill="#00CC14"/>
<path d="M90 15H87V18H90V15Z" fill="#00CC14"/>
<path d="M90 18H87V21H90V18Z" fill="#00CC14"/>
<path d="M93 15H90V18H93V15Z" fill="#00CC14"/>
<path d="M93 18H90V21H93V18Z" fill="#00CC14"/>
<path d="M93 21H90V24H93V21Z" fill="#00CC14"/>
<path d="M96 15H93V18H96V15Z" fill="#00CC14"/>
<path d="M96 12H93V15H96V12Z" fill="#00CC14"/>
<path d="M96 21H93V24H96V21Z" fill="#00CC14"/>
<path d="M96 18H93V21H96V18Z" fill="#00CC14"/>
<path d="M96 24H93V27H96V24Z" fill="#00CC14"/>
<path d="M105 6H108V9H105V6Z" fill="#00CC14"/>
<path d="M105 9H108V12H105V9Z" fill="#00CC14"/>
<path d="M102 9H105V12H102V9Z" fill="#00CC14"/>
<path d="M105 12H108V15H105V12Z" fill="#00CC14"/>
<path d="M102 12H105V15H102V12Z" fill="#00CC14"/>
<path d="M99 9H102V12H99V9Z" fill="#00CC14"/>
<path d="M102 6H105V9H102V6Z" fill="#00CC14"/>
<path d="M108 9H111V12H108V9Z" fill="#00CC14"/>
<path d="M108 12H111V15H108V12Z" fill="#00CC14"/>
<path d="M108 15H111V18H108V15Z" fill="#00CC14"/>
<path d="M99 6H102V9H99V6Z" fill="#00CC14"/>
<path d="M105 15H108V18H105V15Z" fill="#00CC14"/>
<path d="M105 18H108V21H105V18Z" fill="#00CC14"/>
<path d="M102 15H105V18H102V15Z" fill="#00CC14"/>
<path d="M102 18H105V21H102V18Z" fill="#00CC14"/>
<path d="M102 21H105V24H102V21Z" fill="#00CC14"/>
<path d="M99 15H102V18H99V15Z" fill="#00CC14"/>
<path d="M99 12H102V15H99V12Z" fill="#00CC14"/>
<path d="M99 21H102V24H99V21Z" fill="#00CC14"/>
<path d="M99 18H102V21H99V18Z" fill="#00CC14"/>
<path d="M99 24H102V27H99V24Z" fill="#00CC14"/>
<path d="M99 9H96V12H99V9Z" fill="#00CC14"/>
<path d="M99 15H96V18H99V15Z" fill="#00CC14"/>
<path d="M99 12H96V15H99V12Z" fill="#00CC14"/>
<path d="M99 21H96V24H99V21Z" fill="#00CC14"/>
<path d="M99 18H96V21H99V18Z" fill="#00CC14"/>
<path d="M99 24H96V27H99V24Z" fill="#00CC14"/>
<path d="M99 27H96V30H99V27Z" fill="#00CC14"/>
<path fill-rule="evenodd" clip-rule="evenodd" d="M126 6V9H123V18H126V21H129V24H132V27H135V30H138V27H141V24H144V21H147V18H150V9H147V6H138V9H135V6H126ZM129 12V9H132V12H129ZM129 12V15H126V12H129Z" fill="#00CC14"/>
<path d="M168 6H165V9H168V6Z" fill="#00CC14"/>
<path d="M168 9H165V12H168V9Z" fill="#00CC14"/>
<path d="M171 12H168V15H171V12Z" fill="#00CC14"/>
<path d="M174 9H171V12H174V9Z" fill="#00CC14"/>
<path d="M171 6H168V9H171V6Z" fill="#00CC14"/>
<path d="M165 9H162V12H165V9Z" fill="#00CC14"/>
<path d="M165 12H162V15H165V12Z" fill="#00CC14"/>
<path d="M165 15H162V18H165V15Z" fill="#00CC14"/>
<path d="M174 6H171V9H174V6Z" fill="#00CC14"/>
<path d="M168 15H165V18H168V15Z" fill="#00CC14"/>
<path d="M168 18H165V21H168V18Z" fill="#00CC14"/>
<path d="M171 15H168V18H171V15Z" fill="#00CC14"/>
<path d="M171 18H168V21H171V18Z" fill="#00CC14"/>
<path d="M171 21H168V24H171V21Z" fill="#00CC14"/>
<path d="M174 15H171V18H174V15Z" fill="#FF0000"/>
<path d="M174 12H171V15H174V12Z" fill="#00CC14"/>
<path d="M174 21H171V24H174V21Z" fill="#00CC14"/>
<path d="M174 18H171V21H174V18Z" fill="#00CC14"/>
<path d="M174 24H171V27H174V24Z" fill="#00CC14"/>
<path d="M183 6H186V9H183V6Z" fill="#00CC14"/>
<path d="M183 9H186V12H183V9Z" fill="#00CC14"/>
<path d="M180 9H183V12H180V9Z" fill="#00CC14"/>
<path d="M183 12H186V15H183V12Z" fill="#00CC14"/>
<path d="M180 12H183V15H180V12Z" fill="#00CC14"/>
<path d="M177 9H180V12H177V9Z" fill="#00CC14"/>
<path d="M180 6H183V9H180V6Z" fill="#00CC14"/>
<path d="M186 9H189V12H186V9Z" fill="#00CC14"/>
<path d="M186 12H189V15H186V12Z" fill="#00CC14"/>
<path d="M186 15H189V18H186V15Z" fill="#00CC14"/>
<path d="M177 6H180V9H177V6Z" fill="#00CC14"/>
<path d="M183 15H186V18H183V15Z" fill="#00CC14"/>
<path d="M183 18H186V21H183V18Z" fill="#00CC14"/>
<path d="M180 15H183V18H180V15Z" fill="#00CC14"/>
<path d="M180 18H183V21H180V18Z" fill="#00CC14"/>
<path d="M180 21H183V24H180V21Z" fill="#00CC14"/>
<path d="M177 15H180V18H177V15Z" fill="#FF0000"/>
<path d="M177 12H180V15H177V12Z" fill="#00CC14"/>
<path d="M177 21H180V24H177V21Z" fill="#00CC14"/>
<path d="M177 18H180V21H177V18Z" fill="#00CC14"/>
<path d="M177 24H180V27H177V24Z" fill="#00CC14"/>
<path d="M177 9H174V12H177V9Z" fill="#00CC14"/>
<path d="M177 15H174V18H177V15Z" fill="#FF0000"/>
<path d="M177 12H174V15H177V12Z" fill="#FF0000"/>
<path d="M177 21H174V24H177V21Z" fill="#00CC14"/>
<path d="M177 18H174V21H177V18Z" fill="#FF0000"/>
<path d="M177 24H174V27H177V24Z" fill="#00CC14"/>
<path d="M177 27H174V30H177V27Z" fill="#00CC14"/>
<path d="M207 6H204V9H207V6Z" fill="#00CC14"/>
<path d="M207 9H204V12H207V9Z" fill="#FF0000"/>
<path d="M210 12H207V15H210V12Z" fill="#FF0000"/>
<path d="M213 9H210V12H213V9Z" fill="#FF0000"/>
<path d="M210 6H207V9H210V6Z" fill="#00CC14"/>
<path d="M204 9H201V12H204V9Z" fill="#00CC14"/>
<path d="M204 12H201V15H204V12Z" fill="#00CC14"/>
<path d="M204 15H201V18H204V15Z" fill="#00CC14"/>
<path d="M213 6H210V9H213V6Z" fill="#00CC14"/>
<path d="M207 15H204V18H207V15Z" fill="#FF0000"/>
<path d="M207 18H204V21H207V18Z" fill="#00CC14"/>
<path d="M210 15H207V18H210V15Z" fill="#FF0000"/>
<path d="M210 18H207V21H210V18Z" fill="#FF0000"/>
<path d="M210 21H207V24H210V21Z" fill="#00CC14"/>
<path d="M213 15H210V18H213V15Z" fill="#FF0000"/>
<path d="M213 12H210V15H213V12Z" fill="#FF0000"/>
<path d="M213 21H210V24H213V21Z" fill="#FF0000"/>
<path d="M213 18H210V21H213V18Z" fill="#FF0000"/>
<path d="M213 24H210V27H213V24Z" fill="#00CC14"/>
<path d="M222 6H225V9H222V6Z" fill="#00CC14"/>
<path d="M222 9H225V12H222V9Z" fill="#FF0000"/>
<path d="M219 9H222V12H219V9Z" fill="#FF0000"/>
<path d="M222 12H225V15H222V12Z" fill="#FF0000"/>
<path d="M219 12H222V15H219V12Z" fill="#FF0000"/>
<path d="M216 9H219V12H216V9Z" fill="#FF0000"/>
<path d="M219 6H222V9H219V6Z" fill="#00CC14"/>
<path d="M225 9H228V12H225V9Z" fill="#00CC14"/>
<path d="M225 12H228V15H225V12Z" fill="#00CC14"/>
<path d="M225 15H228V18H225V15Z" fill="#00CC14"/>
<path d="M216 6H219V9H216V6Z" fill="#00CC14"/>
<path d="M222 15H225V18H222V15Z" fill="#FF0000"/>
<path d="M222 18H225V21H222V18Z" fill="#00CC14"/>
<path d="M219 15H222V18H219V15Z" fill="#FF0000"/>
<path d="M219 18H222V21H219V18Z" fill="#FF0000"/>
<path d="M219 21H222V24H219V21Z" fill="#00CC14"/>
<path d="M216 15H219V18H216V15Z" fill="#FF0000"/>
<path d="M216 12H219V15H216V12Z" fill="#FF0000"/>
<path d="M216 21H219V24H216V21Z" fill="#FF0000"/>
<path d="M216 18H219V21H216V18Z" fill="#FF0000"/>
<path d="M216 24H219V27H216V24Z" fill="#00CC14"/>
<path d="M216 9H213V12H216V9Z" fill="#00CC14"/>
<path d="M216 15H213V18H216V15Z" fill="#FF0000"/>
<path d="M216 12H213V15H216V12Z" fill="#FF0000"/>
<path d="M216 21H213V24H216V21Z" fill="#FF0000"/>
<path d="M216 18H213V21H216V18Z" fill="#FF0000"/>
<path d="M216 24H213V27H216V24Z" fill="#FF0000"/>
<path d="M216 27H213V30H216V27Z" fill="#00CC14"/>
<path d="M246 6H243V9H246V6Z" fill="#00CC14"/>
<path d="M249 6H246V9H249V6Z" fill="#00CC14"/>
<path d="M243 9H240V12H243V9Z" fill="#00CC14"/>
<path d="M243 12H240V15H243V12Z" fill="#00CC14"/>
<path d="M243 15H240V18H243V15Z" fill="#00CC14"/>
<path d="M252 6H249V9H252V6Z" fill="#00CC14"/>
<path d="M246 18H243V21H246V18Z" fill="#00CC14"/>
<path d="M249 21H246V24H249V21Z" fill="#00CC14"/>
<path d="M252 24H249V27H252V24Z" fill="#00CC14"/>
<path d="M261 6H264V9H261V6Z" fill="#00CC14"/>
<path d="M258 6H261V9H258V6Z" fill="#00CC14"/>
<path d="M264 9H267V12H264V9Z" fill="#00CC14"/>
<path d="M264 12H267V15H264V12Z" fill="#00CC14"/>
<path d="M264 15H267V18H264V15Z" fill="#00CC14"/>
<path d="M255 6H258V9H255V6Z" fill="#00CC14"/>
<path d="M261 18H264V21H261V18Z" fill="#00CC14"/>
<path d="M258 21H261V24H258V21Z" fill="#00CC14"/>
<path d="M255 24H258V27H255V24Z" fill="#00CC14"/>
<path d="M255 9H252V12H255V9Z" fill="#00CC14"/>
<path d="M255 27H252V30H255V27Z" fill="#00CC14"/>
<path d="M285 6H282V9H285V6Z" fill="#00CC14"/>
<path d="M288 6H285V9H288V6Z" fill="#00CC14"/>
<path d="M282 9H279V12H282V9Z" fill="#00CC14"/>
<path d="M282 12H279V15H282V12Z" fill="#00CC14"/>
<path d="M282 15H279V18H282V15Z" fill="#00CC14"/>
<path d="M291 6H288V9H291V6Z" fill="#00CC14"/>
<path d="M285 18H282V21H285V18Z" fill="#00CC14"/>
<path d="M288 21H285V24H288V21Z" fill="#00CC14"/>
<path d="M291 15H288V18H291V15Z" fill="#FF0000"/>
<path d="M291 24H288V27H291V24Z" fill="#00CC14"/>
<path d="M300 6H303V9H300V6Z" fill="#00CC14"/>
<path d="M297 6H300V9H297V6Z" fill="#00CC14"/>
<path d="M303 9H306V12H303V9Z" fill="#00CC14"/>
<path d="M303 12H306V15H303V12Z" fill="#00CC14"/>
<path d="M303 15H306V18H303V15Z" fill="#00CC14"/>
<path d="M294 6H297V9H294V6Z" fill="#00CC14"/>
<path d="M300 18H303V21H300V18Z" fill="#00CC14"/>
<path d="M297 21H300V24H297V21Z" fill="#00CC14"/>
<path d="M294 15H297V18H294V15Z" fill="#FF0000"/>
<path d="M294 24H297V27H294V24Z" fill="#00CC14"/>
<path d="M294 9H291V12H294V9Z" fill="#00CC14"/>
<path d="M294 15H291V18H294V15Z" fill="#FF0000"/>
<path d="M294 12H291V15H294V12Z" fill="#FF0000"/>
<path d="M294 18H291V21H294V18Z" fill="#FF0000"/>
<path d="M294 27H291V30H294V27Z" fill="#00CC14"/>
<path d="M324 6H321V9H324V6Z" fill="#FF0000"/>
<path d="M324 9H321V12H324V9Z" fill="#FF0000"/>
<path d="M327 12H324V15H327V12Z" fill="#FF0000"/>
<path d="M330 9H327V12H330V9Z" fill="#FF0000"/>
<path d="M327 6H324V9H327V6Z" fill="#FF0000"/>
<path d="M321 9H318V12H321V9Z" fill="#FF0000"/>
<path d="M321 12H318V15H321V12Z" fill="#FF0000"/>
<path d="M321 15H318V18H321V15Z" fill="#FF0000"/>
<path d="M330 6H327V9H330V6Z" fill="#FF0000"/>
<path d="M324 15H321V18H324V15Z" fill="#FF0000"/>
<path d="M324 18H321V21H324V18Z" fill="#FF0000"/>
<path d="M327 15H324V18H327V15Z" fill="#FF0000"/>
<path d="M327 18H324V21H327V18Z" fill="#FF0000"/>
<path d="M327 21H324V24H327V21Z" fill="#FF0000"/>
<path d="M330 15H327V18H330V15Z" fill="#FF0000"/>
<path d="M330 12H327V15H330V12Z" fill="#FF0000"/>
<path d="M330 21H327V24H330V21Z" fill="#FF0000"/>
<path d="M330 18H327V21H330V18Z" fill="#FF0000"/>
<path d="M330 24H327V27H330V24Z" fill="#FF0000"/>
<path d="M339 6H342V9H339V6Z" fill="#FF0000"/>
<path d="M339 9H342V12H339V9Z" fill="#FF0000"/>
<path d="M336 9H339V12H336V9Z" fill="#FF0000"/>
<path d="M339 12H342V15H339V12Z" fill="#FF0000"/>
<path d="M336 12H339V15H336V12Z" fill="#FF0000"/>
<path d="M333 9H336V12H333V9Z" fill="#FF0000"/>
<path d="M336 6H339V9H336V6Z" fill="#FF0000"/>
<path d="M342 9H345V12H342V9Z" fill="#FF0000"/>
<path d="M342 12H345V15H342V12Z" fill="#FF0000"/>
<path d="M342 15H345V18H342V15Z" fill="#FF0000"/>
<path d="M333 6H336V9H333V6Z" fill="#FF0000"/>
<path d="M339 15H342V18H339V15Z" fill="#FF0000"/>
<path d="M339 18H342V21H339V18Z" fill="#FF0000"/>
<path d="M336 15H339V18H336V15Z" fill="#FF0000"/>
<path d="M336 18H339V21H336V18Z" fill="#FF0000"/>
<path d="M336 21H339V24H336V21Z" fill="#FF0000"/>
<path d="M333 15H336V18H333V15Z" fill="#FF0000"/>
<path d="M333 12H336V15H333V12Z" fill="#FF0000"/>
<path d="M333 21H336V24H333V21Z" fill="#FF0000"/>
<path d="M333 18H336V21H333V18Z" fill="#FF0000"/>
<path d="M333 24H336V27H333V24Z" fill="#FF0000"/>
<path d="M333 9H330V12H333V9Z" fill="#FF0000"/>
<path d="M333 15H330V18H333V15Z" fill="#FF0000"/>
<path d="M333 12H330V15H333V12Z" fill="#FF0000"/>
<path d="M333 21H330V24H333V21Z" fill="#FF0000"/>
<path d="M333 18H330V21H333V18Z" fill="#FF0000"/>
<path d="M333 24H330V27H333V24Z" fill="#FF0000"/>
<path d="M333 27H330V30H333V27Z" fill="#FF0000"/>
<path d="M363 6H360V9H363V6Z" fill="#FF0000"/>
<path d="M360 6H357V9H360V6Z" fill="#FF0000"/>
<path d="M363 9H360V12H363V9Z" fill="#FF0000"/>
<path d="M366 12H363V15H366V12Z" fill="#FF0000"/>
<path d="M369 9H366V12H369V9Z" fill="#FF0000"/>
<path d="M366 6H363V9H366V6Z" fill="#FF0000"/>
<path d="M360 9H357V12H360V9Z" fill="#FF0000"/>
<path d="M360 12H357V15H360V12Z" fill="#FF0000"/>
<path d="M360 15H357V18H360V15Z" fill="#FF0000"/>
<path d="M357 9H354V12H357V9Z" fill="#FF0000"/>
<path d="M357 12H354V15H357V12Z" fill="#FF0000"/>
<path d="M357 15H354V18H357V15Z" fill="#FF0000"/>
<path d="M369 6H366V9H369V6Z" fill="#FF0000"/>
<path d="M363 15H360V18H363V15Z" fill="#FF0000"/>
<path d="M363 18H360V21H363V18Z" fill="#FF0000"/>
<path d="M366 15H363V18H366V15Z" fill="#FF0000"/>
<path d="M366 18H363V21H366V18Z" fill="#FF0000"/>
<path d="M366 21H363V24H366V21Z" fill="#FF0000"/>
<path d="M369 15H366V18H369V15Z" fill="#FF0000"/>
<path d="M369 12H366V15H369V12Z" fill="#FF0000"/>
<path d="M369 21H366V24H369V21Z" fill="#FF0000"/>
<path d="M369 18H366V21H369V18Z" fill="#FF0000"/>
<path d="M369 24H366V27H369V24Z" fill="#FF0000"/>
<path d="M378 6H381V9H378V6Z" fill="#FF0000"/>
<path d="M381 6H384V9H381V6Z" fill="#FF0000"/>
<path d="M378 9H381V12H378V9Z" fill="#FF0000"/>
<path d="M375 9H378V12H375V9Z" fill="#FF0000"/>
<path d="M378 12H381V15H378V12Z" fill="#FF0000"/>
<path d="M375 12H378V15H375V12Z" fill="#FF0000"/>
<path d="M372 9H375V12H372V9Z" fill="#FF0000"/>
<path d="M375 6H378V9H375V6Z" fill="#FF0000"/>
<path d="M381 9H384V12H381V9Z" fill="#FF0000"/>
<path d="M384 9H387V12H384V9Z" fill="#FF0000"/>
<path d="M384 12H387V15H384V12Z" fill="#FF0000"/>
<path d="M384 15H387V18H384V15Z" fill="#FF0000"/>
<path d="M381 12H384V15H381V12Z" fill="#FF0000"/>
<path d="M381 15H384V18H381V15Z" fill="#FF0000"/>
<path d="M372 6H375V9H372V6Z" fill="#FF0000"/>
<path d="M363 3H360V6H363V3Z" fill="#FF0000"/>
<path d="M366 3H363V6H366V3Z" fill="#FF0000"/>
<path d="M369 3H366V6H369V3Z" fill="#FF0000"/>
<path d="M378 3H381V6H378V3Z" fill="#FF0000"/>
<path d="M375 3H378V6H375V3Z" fill="#FF0000"/>
<path d="M372 3H375V6H372V3Z" fill="#FF0000"/>
<path d="M378 15H381V18H378V15Z" fill="#FF0000"/>
<path d="M378 18H381V21H378V18Z" fill="#FF0000"/>
<path d="M375 15H378V18H375V15Z" fill="#FF0000"/>
<path d="M375 18H378V21H375V18Z" fill="#FF0000"/>
<path d="M375 21H378V24H375V21Z" fill="#FF0000"/>
<path d="M372 15H375V18H372V15Z" fill="#FF0000"/>
<path d="M372 12H375V15H372V12Z" fill="#FF0000"/>
<path d="M372 21H375V24H372V21Z" fill="#FF0000"/>
<path d="M372 18H375V21H372V18Z" fill="#FF0000"/>
<path d="M372 24H375V27H372V24Z" fill="#FF0000"/>
<path d="M372 9H369V12H372V9Z" fill="#FF0000"/>
<path d="M372 6H369V9H372V6Z" fill="#FF0000"/>
<path d="M372 15H369V18H372V15Z" fill="#FF0000"/>
<path d="M372 12H369V15H372V12Z" fill="#FF0000"/>
<path d="M372 21H369V24H372V21Z" fill="#FF0000"/>
<path d="M372 18H369V21H372V18Z" fill="#FF0000"/>
<path d="M372 24H369V27H372V24Z" fill="#FF0000"/>
<path d="M372 27H369V30H372V27Z" fill="#FF0000"/>
<path d="M372 30H369V33H372V30Z" fill="#FF0000"/>
<path d="M381 18H384V21H381V18Z" fill="#FF0000"/>
<path d="M378 21H381V24H378V21Z" fill="#FF0000"/>
<path d="M375 24H378V27H375V24Z" fill="#FF0000"/>
<path d="M375 27H372V30H375V27Z" fill="#FF0000"/>
<path d="M360 18H357V21H360V18Z" fill="#FF0000"/>
<path d="M363 21H360V24H363V21Z" fill="#FF0000"/>
<path d="M366 24H363V27H366V24Z" fill="#FF0000"/>
<path d="M369 27H366V30H369V27Z" fill="#FF0000"/>
<path d="M402 6H399V9H402V6Z" fill="#FF0000"/>
<path d="M402 9H399V12H402V9Z" fill="#FF0000"/>
<path d="M405 12H402V15H405V12Z" fill="#FF0000"/>
<path d="M408 9H405V12H408V9Z" fill="#FF0000"/>
<path d="M405 6H402V9H405V6Z" fill="#FF0000"/>
<path d="M399 9H396V12H399V9Z" fill="#FF0000"/>
<path d="M399 12H396V15H399V12Z" fill="#FF0000"/>
<path d="M399 15H396V18H399V15Z" fill="#FF0000"/>
<path d="M408 6H405V9H408V6Z" fill="#FF0000"/>
<path d="M402 15H399V18H402V15Z" fill="#FF0000"/>
<path d="M402 18H399V21H402V18Z" fill="#FF0000"/>
<path d="M405 15H402V18H405V15Z" fill="#FF0000"/>
<path d="M405 18H402V21H405V18Z" fill="#FF0000"/>
<path d="M405 21H402V24H405V21Z" fill="#FF0000"/>
<path d="M408 15H405V18H408V15Z" fill="#FF0000"/>
<path d="M408 12H405V15H408V12Z" fill="#FF0000"/>
<path d="M408 21H405V24H408V21Z" fill="#FF0000"/>
<path d="M408 18H405V21H408V18Z" fill="#FF0000"/>
<path d="M408 24H405V27H408V24Z" fill="#FF0000"/>
<path d="M417 6H420V9H417V6Z" fill="#FF0000"/>
<path d="M417 9H420V12H417V9Z" fill="#FF0000"/>
<path d="M414 9H417V12H414V9Z" fill="#FF0000"/>
<path d="M417 12H420V15H417V12Z" fill="#FF0000"/>
<path d="M414 12H417V15H414V12Z" fill="#FF0000"/>
<path d="M411 9H414V12H411V9Z" fill="#FF0000"/>
<path d="M414 6H417V9H414V6Z" fill="#FF0000"/>
<path d="M420 9H423V12H420V9Z" fill="#FF0000"/>
<path d="M426 13H429V16H426V13Z" fill="#FF0000"/>
<path d="M417 27H420V30H417V27Z" fill="#FF0000"/>
<path d="M408 33H411V36H408V33Z" fill="#FF0000"/>
<path d="M399 27H402V30H399V27Z" fill="#FF0000"/>
<path d="M414 0H417V3H414V0Z" fill="#FF0000"/>
<path d="M423 3H426V6H423V3Z" fill="#FF0000"/>
<path d="M393 3H396V6H393V3Z" fill="#FF0000"/>
<path d="M402 0H405V3H402V0Z" fill="#FF0000"/>
<path d="M390 13H393V16H390V13Z" fill="#FF0000"/>
<path d="M420 12H423V15H420V12Z" fill="#FF0000"/>
<path d="M420 15H423V18H420V15Z" fill="#FF0000"/>
<path d="M411 6H414V9H411V6Z" fill="#FF0000"/>
<path d="M417 15H420V18H417V15Z" fill="#FF0000"/>
<path d="M417 18H420V21H417V18Z" fill="#FF0000"/>
<path d="M414 15H417V18H414V15Z" fill="#FF0000"/>
<path d="M414 18H417V21H414V18Z" fill="#FF0000"/>
<path d="M414 21H417V24H414V21Z" fill="#FF0000"/>
<path d="M411 15H414V18H411V15Z" fill="#FF0000"/>
<path d="M411 12H414V15H411V12Z" fill="#FF0000"/>
<path d="M411 21H414V24H411V21Z" fill="#FF0000"/>
<path d="M411 18H414V21H411V18Z" fill="#FF0000"/>
<path d="M411 24H414V27H411V24Z" fill="#FF0000"/>
<path d="M411 9H408V12H411V9Z" fill="#FF0000"/>
<path d="M411 15H408V18H411V15Z" fill="#FF0000"/>
<path d="M411 12H408V15H411V12Z" fill="#FF0000"/>
<path d="M411 21H408V24H411V21Z" fill="#FF0000"/>
<path d="M411 18H408V21H411V18Z" fill="#FF0000"/>
<path d="M411 24H408V27H411V24Z" fill="#FF0000"/>
<path d="M411 27H408V30H411V27Z" fill="#FF0000"/>
<path d="M441 6H438V9H441V6Z" fill="#FF0000"/>
<path d="M441 9H438V12H441V9Z" fill="#FF0000"/>
<path d="M444 12H441V15H444V12Z" fill="#FF0000"/>
<path d="M447 9H444V12H447V9Z" fill="#FF0000"/>
<path d="M444 6H441V9H444V6Z" fill="#FF0000"/>
<path d="M438 9H435V12H438V9Z" fill="#FF0000"/>
<path d="M438 12H435V15H438V12Z" fill="#FF0000"/>
<path d="M438 15H435V18H438V15Z" fill="#FF0000"/>
<path d="M447 6H444V9H447V6Z" fill="#FF0000"/>
<path d="M441 15H438V18H441V15Z" fill="#FF0000"/>
<path d="M441 18H438V21H441V18Z" fill="#FF0000"/>
<path d="M444 15H441V18H444V15Z" fill="#FF0000"/>
<path d="M444 18H441V21H444V18Z" fill="#FF0000"/>
<path d="M444 21H441V24H444V21Z" fill="#FF0000"/>
<path d="M447 15H444V18H447V15Z" fill="#FF0000"/>
<path d="M447 12H444V15H447V12Z" fill="#FF0000"/>
<path d="M447 21H444V24H447V21Z" fill="#FF0000"/>
<path d="M447 18H444V21H447V18Z" fill="#FF0000"/>
<path d="M447 24H444V27H447V24Z" fill="#FF0000"/>
<path d="M456 6H459V9H456V6Z" fill="#FF0000"/>
<path d="M456 9H459V12H456V9Z" fill="#FF0000"/>
<path d="M453 9H456V12H453V9Z" fill="#FF0000"/>
<path d="M456 12H459V15H456V12Z" fill="#FF0000"/>
<path d="M453 12H456V15H453V12Z" fill="#FF0000"/>
<path d="M450 9H453V12H450V9Z" fill="#FF0000"/>
<path d="M453 6H456V9H453V6Z" fill="#FF0000"/>
<path d="M459 9H462V12H459V9Z" fill="#FF0000"/>
<path d="M459 12H462V15H459V12Z" fill="#FF0000"/>
<path d="M459 15H462V18H459V15Z" fill="#FF0000"/>
<path d="M450 6H453V9H450V6Z" fill="#FF0000"/>
<path d="M456 15H459V18H456V15Z" fill="#FF0000"/>
<path d="M456 18H459V21H456V18Z" fill="#FF0000"/>
<path d="M453 15H456V18H453V15Z" fill="#FF0000"/>
<path d="M453 18H456V21H453V18Z" fill="#FF0000"/>
<path d="M453 21H456V24H453V21Z" fill="#FF0000"/>
<path d="M450 15H453V18H450V15Z" fill="#FF0000"/>
<path d="M450 12H453V15H450V12Z" fill="#FF0000"/>
<path d="M450 21H453V24H450V21Z" fill="#FF0000"/>
<path d="M450 18H453V21H450V18Z" fill="#FF0000"/>
<path d="M450 24H453V27H450V24Z" fill="#FF0000"/>
<path d="M450 9H447V12H450V9Z" fill="#FF0000"/>
<path d="M450 15H447V18H450V15Z" fill="#FF0000"/>
<path d="M450 12H447V15H450V12Z" fill="#FF0000"/>
<path d="M450 21H447V24H450V21Z" fill="#FF0000"/>
<path d="M450 18H447V21H450V18Z" fill="#FF0000"/>
<path d="M450 24H447V27H450V24Z" fill="#FF0000"/>
<path d="M450 27H447V30H450V27Z" fill="#FF0000"/>
</g>
<defs>
<clipPath id="clip0_56101_37">
<rect width="468" height="36" fill="white"/>
</clipPath>
</defs>
</svg>
